<svg width="273" height="67" viewBox="0 0 273 67" fill="none" xmlns="http://www.w3.org/2000/svg">
<g clip-path="url(#clip0_12_591)">
<path d="M32.3531 8.99982C32.4086 9.0092 32.464 9.02585 32.5195 9.0267C33.3371 9.03523 34.1542 9.04633 34.9718 9.06382C36.0877 9.08772 37.2026 9.12826 38.3172 9.16837C39.346 9.20549 40.3744 9.26523 41.4015 9.33905C42.8386 9.44231 44.2745 9.55539 45.7083 9.70474C47.4407 9.88524 49.1612 10.1255 50.8484 10.5667C52.5488 11.0118 54.1503 11.671 55.5367 12.7817C56.8996 13.8737 57.8366 15.2665 58.4396 16.8944C58.9017 18.1421 59.1454 19.4346 59.2546 20.7587C59.3651 22.0973 59.4253 23.4371 59.4688 24.7791C59.5174 26.2786 59.5729 27.778 59.5396 29.2775C59.5089 30.6763 59.4453 32.0742 59.3438 33.4704C59.2755 34.4121 59.2008 35.3534 59.1138 36.293C59.0186 37.3176 58.8945 38.3391 58.7908 39.3632C58.6538 40.7202 58.452 42.0677 58.2211 43.4106C57.855 45.5411 57.3954 47.6427 56.5855 49.664C55.4176 52.5776 53.3216 54.4606 50.3948 55.4852C48.9269 55.9989 47.4125 56.3117 45.8807 56.5473C44.4768 56.7632 43.0631 56.8882 41.6455 56.9816C40.6462 57.0474 39.6473 57.1063 38.6466 57.1506C37.2692 57.2121 35.8918 57.2522 34.5135 57.2846C33.7813 57.3017 33.0491 57.3013 32.3172 57.3187C31.0235 57.3495 29.7297 57.3623 28.4355 57.3418C26.9855 57.3192 25.5355 57.2991 24.086 57.2616C22.9638 57.233 21.8419 57.1899 20.721 57.134C19.5936 57.0777 18.4662 57.0119 17.3406 56.9245C15.088 56.7495 12.8439 56.5084 10.6557 55.9076C9.1614 55.4971 7.71955 54.965 6.43558 54.0681C4.75434 52.8942 3.67476 51.2812 2.93656 49.3943C2.26961 47.69 1.86253 45.923 1.53183 44.133C1.28007 42.7718 1.07439 41.4029 0.906696 40.0289C0.800018 39.1554 0.722784 38.2785 0.634028 37.4029C0.551673 36.5909 0.467184 35.7793 0.392937 34.9664C0.339598 34.3797 0.2965 33.7917 0.258096 33.2041C0.112588 30.9767 0.054129 28.7458 0.0605297 26.5141C0.0639434 25.3279 0.0579694 24.1395 0.128803 22.9541C0.228227 21.2814 0.320396 19.6074 0.762894 17.9778C1.2199 16.2957 1.97603 14.7766 3.20197 13.5178C4.2154 12.4766 5.43025 11.7406 6.7714 11.1999C8.2572 10.6008 9.81128 10.2689 11.385 10.0154C12.7099 9.80203 14.0455 9.66975 15.3816 9.55326C16.4424 9.46066 17.504 9.38001 18.5682 9.32241C20.086 9.24048 21.603 9.14874 23.1229 9.10649C24.3877 9.0715 25.652 9.02755 26.9172 9.02713C27.0085 9.02713 27.1024 9.04249 27.1899 8.99939C28.9108 8.99982 30.6322 8.99982 32.3531 8.99982ZM29.7668 55.2407C29.7668 55.2402 29.7668 55.2398 29.7668 55.239C30.9262 55.239 32.086 55.2641 33.2441 55.233C34.8208 55.1907 36.3987 55.1677 37.9737 55.0755C38.8387 55.0248 39.7053 55.0009 40.569 54.9347C41.9204 54.831 43.2717 54.7222 44.6142 54.5234C45.8871 54.3352 47.151 54.1129 48.3761 53.7028C50.7123 52.9211 52.4533 51.4673 53.4983 49.213C54.0509 48.0212 54.4426 46.7765 54.7413 45.5006C55.2713 43.236 55.567 40.9348 55.8157 38.6254C55.9792 37.1081 56.1144 35.5881 56.2258 34.0665C56.3129 32.8768 56.379 31.6837 56.3961 30.4911C56.4195 28.8636 56.4289 27.2353 56.3798 25.6069C56.3342 24.087 56.2668 22.5696 56.1093 21.0569C55.9869 19.8805 55.7782 18.7233 55.3634 17.6104C54.7473 15.9573 53.724 14.6332 52.2147 13.6979C50.7938 12.8176 49.2218 12.3695 47.5947 12.0862C45.8452 11.7815 44.0816 11.5917 42.3134 11.4333C40.9551 11.3122 39.5944 11.2371 38.2344 11.1517C37.3059 11.0937 36.3757 11.0531 35.4459 11.0241C34.1884 10.9849 32.9304 10.9533 31.6729 10.9388C30.8626 10.9294 30.0523 10.9332 29.2415 10.9537C27.9055 10.9874 26.5682 10.9678 25.2322 11.0147C24.543 11.0391 23.8535 11.0425 23.1643 11.0655C22.5183 11.0873 21.8722 11.1154 21.2271 11.1543C20.1641 11.2174 19.1012 11.2861 18.0391 11.3629C17.3525 11.4124 16.6664 11.4713 15.9815 11.5439C14.9864 11.6493 13.9926 11.764 13.0031 11.9121C11.7165 12.1046 10.4398 12.3333 9.20578 12.7643C6.38181 13.7508 4.58579 15.6723 3.85739 18.585C3.48146 20.0887 3.36753 21.6245 3.26939 23.1619C3.20368 24.1898 3.15546 25.2199 3.14436 26.2496C3.12388 28.1476 3.11961 30.0452 3.20794 31.9427C3.26171 33.0991 3.33894 34.2534 3.4277 35.4076C3.52243 36.6391 3.63508 37.8685 3.76864 39.0965C3.94316 40.6988 4.15609 42.2956 4.45991 43.8787C4.79573 45.6265 5.22415 47.347 5.95339 48.9804C6.70227 50.6578 7.80361 52.0216 9.42639 52.9288C10.5802 53.5739 11.8258 53.958 13.114 54.217C15.0666 54.6096 17.0457 54.7926 19.0282 54.9386C20.034 55.0124 21.041 55.0691 22.0485 55.108C23.5044 55.1643 24.9608 55.2099 26.4171 55.2364C27.5334 55.2569 28.6505 55.2407 29.7668 55.2407Z" fill="#5F5F5F"/>
<path d="M74.4265 22.516C74.5933 22.5079 74.7601 22.493 74.927 22.493C80.5907 22.4917 86.254 22.4917 91.9177 22.4921C92.5172 22.4921 92.5181 22.493 92.5185 23.0818C92.5194 23.7897 92.5104 24.4976 92.5224 25.2056C92.5271 25.4902 92.4366 25.6156 92.1336 25.6446C91.3028 25.7244 90.4776 25.8584 89.6463 25.9339C88.5676 26.0321 88.018 26.5685 87.9796 27.7193C87.9421 28.8377 87.9745 29.9587 87.966 31.0784C87.9638 31.3553 88.1157 31.3911 88.3355 31.3899C89.0434 31.3856 89.7513 31.3886 90.4592 31.3886C94.0504 31.3886 97.6416 31.389 101.233 31.3882C101.747 31.3882 101.749 31.386 101.749 30.8778C101.75 29.8354 101.756 28.7925 101.745 27.75C101.734 26.6009 101.188 26.0428 100.038 25.9314C99.1692 25.8473 98.3039 25.7227 97.4355 25.6271C97.22 25.6032 97.1441 25.4863 97.1436 25.2964C97.1411 24.4597 97.1424 23.6233 97.1432 22.7865C97.1436 22.58 97.2465 22.4802 97.4564 22.4917C97.546 22.4968 97.6365 22.4908 97.7265 22.4908C103.364 22.4908 109.002 22.4908 114.64 22.4908C115.23 22.4908 115.23 22.4917 115.231 23.0878C115.231 23.7829 115.222 24.478 115.234 25.1731C115.239 25.4612 115.176 25.6122 114.841 25.6459C113.883 25.7419 112.927 25.8597 111.976 26.0082C111.287 26.1157 110.882 26.5484 110.766 27.2371C110.713 27.5529 110.674 27.8712 110.675 28.1959C110.68 31.9032 110.68 35.61 110.675 39.3173C110.674 39.642 110.712 39.9608 110.768 40.2757C110.909 41.0728 111.453 41.4867 112.362 41.5733C113.218 41.6548 114.07 41.7811 114.925 41.8741C115.158 41.8993 115.232 42.0107 115.231 42.2257C115.227 43.0497 115.226 43.8733 115.231 44.6972C115.232 44.9281 115.128 45.0271 114.903 45.016C114.813 45.0117 114.723 45.0168 114.633 45.0168C108.995 45.0168 103.357 45.0168 97.7193 45.0168C97.1402 45.0168 97.1389 45.016 97.1377 44.4442C97.1364 43.7491 97.1428 43.054 97.1355 42.3589C97.1321 42.0619 97.1983 41.8955 97.5537 41.8622C98.4737 41.776 99.3933 41.6646 100.306 41.517C101.159 41.3787 101.635 40.8453 101.658 39.9889C101.689 38.8057 101.667 37.6207 101.674 36.4366C101.675 36.2023 101.573 36.1127 101.348 36.1191C101.091 36.1263 100.833 36.1195 100.576 36.1195C96.5595 36.1195 92.5437 36.1195 88.5275 36.1195C87.9677 36.1195 87.9672 36.1204 87.9668 36.661C87.9664 37.6262 87.9707 38.5919 87.9643 39.5571C87.9625 39.8434 88.0065 40.1229 88.0718 40.3969C88.2425 41.1112 88.7592 41.4837 89.6067 41.5707C90.4626 41.6582 91.3144 41.7824 92.1703 41.8694C92.4387 41.8967 92.5207 42.0158 92.5185 42.2646C92.5117 43.0497 92.5074 43.8349 92.5202 44.62C92.5254 44.9238 92.4046 45.0254 92.1085 45.0207C91.2977 45.0079 90.4865 45.0168 89.6758 45.0168C84.7844 45.0168 79.893 45.0173 75.0021 45.016C74.8096 45.016 74.6168 45.0011 74.4243 44.9929C74.4243 43.9629 74.4243 42.9332 74.4243 41.9031C75.4941 41.7734 76.5651 41.6544 77.6328 41.5097C78.3607 41.4107 78.7571 40.9567 78.8962 40.2462C78.9462 39.9911 78.9594 39.7376 78.9594 39.4803C78.9594 36.7165 78.9598 33.9527 78.9594 31.1893C78.9594 30.0325 78.9709 28.8753 78.953 27.7189C78.9363 26.6444 78.4269 26.0718 77.407 25.9476C76.4136 25.8268 75.4186 25.7189 74.4243 25.6054C74.4264 24.5757 74.4265 23.5457 74.4265 22.516Z" fill="#5F5F5F"/>
<path d="M131.817 45.6881C131.128 45.6185 130.438 45.5601 129.751 45.4773C126.765 45.1171 123.871 44.4421 121.269 42.8539C118.322 41.0553 116.522 38.4673 116.145 35.0084C115.772 31.5857 116.681 28.5531 119.208 26.1162C120.748 24.6308 122.614 23.6873 124.632 23.0328C126.609 22.391 128.643 22.0526 130.712 21.8593C132.55 21.6878 134.389 21.6728 136.225 21.7373C139.557 21.8542 142.837 22.3065 145.924 23.6664C148.419 24.7652 150.48 26.3726 151.723 28.8659C152.627 30.6798 152.957 32.6077 152.791 34.6312C152.414 39.2017 149.809 42.0717 145.773 43.8361C143.635 44.7711 141.372 45.2426 139.059 45.485C138.396 45.5545 137.732 45.6206 137.069 45.6885C135.318 45.6881 133.567 45.6881 131.817 45.6881ZM142.376 33.6979C142.404 33.022 142.332 32.2808 142.218 31.5435C141.816 28.9444 140.455 27.1539 137.838 26.4981C135.66 25.9523 133.46 25.951 131.271 26.455C128.765 27.0319 127.272 28.6184 126.765 31.1232C126.402 32.9196 126.411 34.7238 126.793 36.5198C127.3 38.9 128.719 40.4319 131.089 41.0143C133.348 41.5695 135.627 41.5707 137.882 40.9968C140.145 40.4208 141.541 38.958 142.072 36.6755C142.295 35.7188 142.393 34.7506 142.376 33.6979Z" fill="#5F5F5F"/>
<path d="M272.164 44.9157C272.01 44.9238 271.856 44.9396 271.703 44.9396C265.614 44.9409 259.526 44.9409 253.437 44.9405C252.831 44.9405 252.83 44.9396 252.83 44.323C252.83 43.6151 252.838 42.9072 252.827 42.1993C252.823 41.9236 252.924 41.8208 253.203 41.7931C254.034 41.7111 254.862 41.5976 255.69 41.4965C255.91 41.4696 256.119 41.4073 256.315 41.3088C256.878 41.0263 257.054 40.5688 256.785 39.997C256.494 39.377 256.059 38.8449 255.686 38.274C255.556 38.0743 255.341 38.134 255.155 38.1336C252.015 38.1306 248.874 38.1315 245.733 38.1315C244.562 38.1315 243.39 38.1383 242.219 38.1268C241.945 38.1242 241.763 38.2032 241.622 38.4481C241.32 38.9717 240.986 39.4769 240.678 39.9975C240.312 40.6158 240.489 41.1453 241.148 41.4496C241.691 41.7005 242.286 41.6194 242.853 41.718C243.118 41.7641 243.389 41.7705 243.658 41.7961C244.225 41.8503 244.225 41.8507 244.226 42.4327C244.226 43.089 244.227 43.7457 244.225 44.402C244.225 44.9379 244.223 44.9401 243.694 44.9401C240.245 44.9409 236.795 44.9405 233.345 44.9405C232.315 44.9405 231.285 44.9298 230.256 44.9465C229.92 44.952 229.8 44.8423 229.809 44.5031C229.828 43.744 229.823 42.9844 229.811 42.2249C229.806 41.9377 229.9 41.8195 230.202 41.7909C231.059 41.7099 231.912 41.5942 232.766 41.4884C233.503 41.3971 234.002 40.9691 234.38 40.3572C235.716 38.1882 237.058 36.0218 238.398 33.855C239.596 31.9177 240.796 29.9813 241.992 28.0432C242.154 27.7816 242.325 27.5252 242.335 27.1962C242.356 26.5629 241.944 26.0837 241.312 26.0176C240.098 25.8909 238.886 25.7509 237.671 25.6378C237.385 25.6114 237.297 25.4992 237.301 25.2286C237.311 24.4695 237.319 23.7095 237.298 22.9504C237.288 22.5979 237.406 22.4832 237.761 22.4849C240.181 22.4972 242.601 22.4913 245.02 22.4913C248.058 22.4913 251.096 22.5135 254.134 22.4793C255.226 22.467 255.998 22.8958 256.582 23.791C259.162 27.7471 261.754 31.6958 264.341 35.6472C265.356 37.1978 266.374 38.7459 267.382 40.3017C267.914 41.1236 268.664 41.5174 269.634 41.5776C270.479 41.6301 271.321 41.7406 272.165 41.8255C272.164 42.856 272.164 43.8861 272.164 44.9157ZM248.577 34.0764C249.876 34.0764 251.175 34.0773 252.475 34.0743C252.571 34.0739 252.702 34.1238 252.757 34.0154C252.811 33.9109 252.703 33.8277 252.65 33.7457C251.309 31.7022 249.965 29.6617 248.628 27.6156C248.474 27.3792 248.395 27.3293 248.224 27.6114C246.98 29.6553 245.722 31.6903 244.471 33.7287C244.274 34.0496 244.288 34.0752 244.679 34.0756C245.978 34.0777 247.277 34.0764 248.577 34.0764Z" fill="#5F5F5F"/>
<path d="M183.311 38.9925C183.311 35.9488 183.318 33.0143 183.307 30.0803C183.303 29.194 183.384 28.3043 183.25 27.421C183.103 26.4511 182.642 26.0364 181.673 25.9374C180.817 25.8499 179.965 25.7253 179.108 25.6387C178.841 25.6113 178.75 25.4991 178.765 25.2457C178.818 24.3991 178.866 23.552 178.91 22.7046C178.919 22.5168 178.995 22.4161 179.19 22.4191C179.292 22.4204 179.396 22.4161 179.499 22.4161C183.914 22.4161 188.329 22.4157 192.744 22.4161C193.32 22.4161 193.321 22.4174 193.322 22.9888C193.323 23.7095 193.315 24.4306 193.325 25.1514C193.329 25.4193 193.243 25.538 192.958 25.567C192.179 25.6459 191.405 25.7769 190.625 25.852C189.298 25.9796 188.807 26.4887 188.771 27.8273C188.767 27.9689 188.77 28.1106 188.77 28.2518C188.77 33.6194 188.77 38.987 188.77 44.3546C188.77 44.9392 188.769 44.9405 188.174 44.9405C184.672 44.9405 181.171 44.9277 177.67 44.9473C176.646 44.9533 175.896 44.5782 175.272 43.7504C171.528 38.7873 167.756 33.8469 163.993 28.8991C163.91 28.7903 163.82 28.6871 163.724 28.5697C163.634 28.7122 163.673 28.8432 163.673 28.9657C163.671 32.338 163.669 35.7107 163.674 39.083C163.675 39.4551 163.702 39.8293 163.748 40.1989C163.851 41.0139 164.407 41.4777 165.316 41.5707C166.172 41.6582 167.024 41.7832 167.88 41.8694C168.152 41.8967 168.225 42.0192 168.223 42.2663C168.215 43.0386 168.206 43.8114 168.227 44.5829C168.235 44.9272 168.107 45.0237 167.776 45.022C165.575 45.0113 163.374 45.0164 161.173 45.0164C158.856 45.0164 156.539 45.01 154.222 45.0228C153.862 45.0249 153.715 44.9255 153.728 44.5453C153.752 43.7994 153.742 43.0523 153.731 42.306C153.727 42.0252 153.809 41.8937 154.116 41.8647C154.947 41.7862 155.773 41.6556 156.603 41.5741C157.742 41.4623 158.274 40.8756 158.282 39.6365C158.293 37.9117 158.285 36.1869 158.285 34.4617C158.285 32.3508 158.285 30.2399 158.285 28.1285C158.285 27.9996 158.289 27.8708 158.282 27.7423C158.212 26.545 157.697 26.0355 156.515 25.9284C155.683 25.8533 154.857 25.7253 154.027 25.6306C153.817 25.6067 153.735 25.5051 153.736 25.305C153.738 24.4682 153.738 23.6318 153.737 22.7951C153.736 22.5873 153.831 22.4861 154.042 22.4925C154.145 22.4959 154.248 22.4912 154.351 22.4912C159.242 22.4912 164.134 22.4912 169.025 22.4912C169.231 22.4912 169.437 22.4887 169.643 22.4964C170.431 22.5245 171.058 22.8138 171.554 23.4727C175.355 28.5207 179.176 33.5541 182.991 38.5919C183.074 38.7028 183.163 38.8086 183.311 38.9925Z" fill="#5F5F5F"/>
<path d="M207.47 44.9405C202.792 44.9405 198.931 44.9409 195.069 44.94C194.516 44.94 194.515 44.9383 194.514 44.3857C194.513 43.665 194.523 42.9439 194.51 42.2232C194.505 41.9347 194.601 41.8221 194.902 41.7905C195.86 41.6902 196.818 41.5763 197.768 41.4244C198.464 41.3134 198.868 40.8803 198.978 40.1954C199.034 39.8541 199.063 39.5046 199.064 39.1585C199.07 35.4509 199.066 31.7436 199.071 28.0359C199.071 27.7116 199.037 27.392 198.982 27.0767C198.887 26.5335 198.561 26.1789 198.03 26.0193C197.322 25.8064 196.583 25.8119 195.859 25.7112C194.583 25.5341 194.851 25.7987 194.823 24.5962C194.809 24.0172 194.828 23.4377 194.818 22.8582C194.813 22.5988 194.902 22.4673 195.173 22.4917C195.237 22.4976 195.302 22.4917 195.366 22.4917C202.781 22.4921 210.197 22.4767 217.612 22.5023C220.267 22.5117 222.867 22.9192 225.329 23.9749C227.913 25.0831 229.922 26.804 230.968 29.4867C231.643 31.2196 231.821 33.0199 231.653 34.8692C231.506 36.4852 231.072 38.0013 230.221 39.3868C229.172 41.0958 227.679 42.3111 225.895 43.1773C223.735 44.2253 221.431 44.7361 219.047 44.8568C214.918 45.0655 210.785 44.8722 207.47 44.9405ZM207.844 33.7526C207.844 35.8498 207.844 37.9471 207.844 40.0448C207.844 40.5876 207.845 40.5897 208.367 40.5897C210.658 40.5906 212.948 40.594 215.239 40.5867C215.778 40.585 216.316 40.5782 216.855 40.5044C219.103 40.198 220.424 39.0531 220.939 36.8449C221.388 34.9175 221.358 32.9674 221.031 31.0237C220.848 29.9369 220.447 28.9431 219.616 28.1729C218.677 27.302 217.511 26.976 216.284 26.9525C213.634 26.9026 210.983 26.9324 208.332 26.9098C207.933 26.9064 207.834 27.0395 207.837 27.4215C207.853 29.532 207.844 31.6425 207.844 33.7526Z" fill="#5F5F5F"/>
<path d="M15.6051 13.0866C16.1808 13.0874 16.0771 13.0132 16.1901 13.5342C17.4297 19.2461 18.7082 24.9491 20.1637 30.6107C20.5494 32.1115 20.9757 33.5998 21.6111 35.0199C22.575 37.1765 24.2093 38.4532 26.549 38.8176C27.2163 38.9217 27.8871 38.9683 28.5622 38.9977C29.5295 39.0399 30.4965 39.0233 31.4608 38.9759C32.5843 38.9205 33.6951 38.7643 34.7371 38.2932C35.9613 37.7393 36.8753 36.856 37.5201 35.6873C38.1734 34.5027 38.5941 33.226 38.95 31.9301C39.9656 28.2314 40.8877 24.5092 41.7245 20.7657C42.2758 18.2989 42.8139 15.8291 43.3502 13.3588C43.3968 13.145 43.4817 13.0708 43.7044 13.0802C44.9321 13.1301 46.1593 13.1796 47.3792 13.3375C47.5188 13.3554 47.5619 13.4186 47.5538 13.5466C47.5055 14.2835 47.4595 15.0204 47.4108 15.7574C47.3763 16.2814 47.3366 16.8054 47.302 17.3294C47.2312 18.406 47.1616 19.483 47.0938 20.56C47.0468 21.3042 47.0059 22.0484 46.9576 22.7925C46.8924 23.8055 46.8219 24.8186 46.7554 25.8316C46.7084 26.5399 46.6653 27.2487 46.618 27.957C46.5501 28.9768 46.4802 29.9967 46.4123 31.0169C46.3667 31.7039 46.3236 32.3914 46.2775 33.0784C46.2092 34.0982 46.1388 35.118 46.0701 36.1379C46.024 36.8249 45.9822 37.5123 45.9331 38.1993C45.8683 39.1057 45.7961 40.0111 45.73 40.9175C45.6822 41.5759 45.6417 42.2347 45.5926 42.8931C45.5282 43.7636 45.4578 44.6341 45.3912 45.5046C45.3443 46.1203 45.3007 46.7365 45.2525 47.3522C45.1864 48.2014 45.1177 49.0501 45.0494 49.8993C44.9892 50.6494 44.9295 51.3992 44.8689 52.1493C44.842 52.4817 44.8062 52.8137 44.7878 53.1465C44.7797 53.2925 44.7178 53.3394 44.5796 53.3522C43.9015 53.4154 43.2252 53.5063 42.5459 53.5506C41.4121 53.6249 40.2766 53.674 39.142 53.7273C38.8152 53.7427 38.8164 53.7324 38.7349 53.4154C38.1589 51.1726 37.6234 48.9187 36.8638 46.7276C36.6475 46.1024 36.3944 45.4931 36.1124 44.894C35.5158 43.6275 34.5208 42.9192 33.1527 42.6815C31.7309 42.4348 30.2997 42.3679 28.8634 42.4348C27.9072 42.4792 26.9492 42.5492 26.0117 42.7673C24.8908 43.028 24.0702 43.6783 23.5402 44.696C22.9522 45.8242 22.5746 47.0322 22.2106 48.2441C21.6934 49.9659 21.2684 51.7124 20.8157 53.4516C20.7568 53.6787 20.6608 53.7439 20.4368 53.7337C19.3512 53.6842 18.2661 53.6334 17.1814 53.5707C16.4295 53.5272 15.6815 53.4563 14.9352 53.3573C14.7718 53.3356 14.7265 53.2682 14.7146 53.1137C14.6391 52.1374 14.5503 51.1619 14.4726 50.1856C14.4069 49.3646 14.3527 48.5432 14.2887 47.7222C14.2102 46.7105 14.124 45.6992 14.0464 44.687C13.9947 44.0145 13.9546 43.3412 13.9051 42.6687C13.8403 41.7837 13.7699 40.8995 13.7054 40.0145C13.6559 39.3348 13.6132 38.6546 13.565 37.9749C13.4993 37.0472 13.4293 36.12 13.3653 35.1927C13.315 34.4631 13.2723 33.733 13.2237 33.0033C13.1584 32.0261 13.0884 31.0489 13.0235 30.0714C12.9736 29.3203 12.9309 28.5689 12.8819 27.8179C12.817 26.8335 12.7479 25.8491 12.6826 24.8646C12.648 24.3475 12.6186 23.8299 12.5849 23.3127C12.5179 22.2856 12.4483 21.2585 12.3826 20.2314C12.3335 19.4591 12.2913 18.6863 12.2418 17.914C12.1769 16.9009 12.1078 15.8879 12.0412 14.8749C12.0118 14.4286 11.9862 13.9818 11.9542 13.5359C11.944 13.3955 12.0071 13.3507 12.1381 13.3383C12.654 13.2893 13.1678 13.218 13.6841 13.1817C14.3284 13.1352 14.9749 13.116 15.6051 13.0866Z" fill="#5F5F5F"/>
</g>
<defs>
<clipPath id="clip0_12_591">
<rect width="272.104" height="66.54" fill="white" transform="translate(0.0600586)"/>
</clipPath>
</defs>
</svg>
